<?xml version="1.0" standalone="no"?>
<!DOCTYPE svg PUBLIC "-//W3C//DTD SVG 20010904//EN"
 "http://www.w3.org/TR/2001/REC-SVG-20010904/DTD/svg10.dtd">
<svg version="1.0" xmlns="http://www.w3.org/2000/svg"
 width="1920.000000pt" height="1771.000000pt" viewBox="0 0 1920.000000 1771.000000"
 preserveAspectRatio="xMidYMid meet">

<g transform="translate(0.000000,1771.000000) scale(0.100000,-0.100000)"
fill="#000000" stroke="none">
<path d="M9394 14834 c-18 -14 -18 -14 6 -3 31 14 36 19 24 19 -6 0 -19 -7
-30 -16z"/>
<path d="M9756 14817 c3 -10 9 -15 12 -12 3 3 0 11 -7 18 -10 9 -11 8 -5 -6z"/>
<path d="M9329 14783 c-48 -53 -51 -59 -35 -72 12 -10 14 -9 9 7 -3 13 7 31
33 56 20 20 33 36 27 36 -5 0 -20 -12 -34 -27z"/>
<path d="M9777 14796 c-4 -10 -1 -13 7 -10 7 3 19 -3 27 -12 12 -16 12 -17 -4
-11 -11 4 -16 3 -12 -4 4 -5 12 -8 18 -6 17 5 39 -42 31 -67 -6 -19 -5 -19 10
-7 14 12 16 12 10 -3 -3 -9 -2 -16 4 -16 11 0 26 -49 18 -58 -3 -3 -10 6 -15
19 -7 18 -9 5 -7 -48 2 -60 1 -71 -11 -62 -9 8 -13 8 -13 1 0 -6 -12 -18 -27
-26 -20 -11 -23 -15 -10 -16 23 0 22 -12 -4 -33 -16 -14 -24 -16 -35 -6 -12
10 -13 9 -8 -5 5 -12 -1 -18 -24 -22 -22 -4 -32 -13 -37 -32 -4 -18 -9 -22
-14 -13 -6 10 -10 9 -14 -4 -5 -12 -11 -14 -25 -6 -11 6 -23 6 -28 1 -5 -5
-29 -9 -54 -10 -64 -3 -72 -1 -65 10 3 5 -12 13 -36 16 -25 4 -50 16 -62 30
-11 13 -28 24 -36 24 -13 0 -13 2 -3 9 10 6 9 10 -7 14 -20 5 -61 81 -61 113
0 9 -4 12 -10 9 -6 -4 -10 5 -10 19 0 14 -5 26 -11 26 -5 0 -7 5 -3 11 4 8 9
7 16 -2 6 -9 8 0 4 29 -5 32 -3 42 5 36 7 -4 10 -2 8 5 -15 43 -46 -24 -56
-119 -9 -86 17 -152 85 -219 57 -55 119 -90 161 -91 23 0 24 -1 18 -67 -38
-402 -89 -948 -97 -1028 -5 -55 -6 -103 -2 -106 31 -27 213 -38 302 -17 l52
12 -7 60 c-3 34 -12 120 -20 191 -8 72 -24 249 -36 395 -11 146 -26 330 -33
409 -8 97 -8 144 -1 146 100 27 180 87 223 169 38 73 37 176 -2 262 -32 71
-90 135 -99 110z m-419 -411 c-3 -3 -9 2 -12 12 -6 14 -5 15 5 6 7 -7 10 -15
7 -18z"/>
<path d="M9836 14555 c4 -8 8 -15 10 -15 2 0 4 7 4 15 0 8 -4 15 -10 15 -5 0
-7 -7 -4 -15z"/>
<path d="M8854 13074 c-55 -7 -167 -27 -249 -44 -542 -110 -773 -294 -587
-468 117 -110 436 -214 781 -256 123 -15 261 -27 224 -19 -24 5 -21 33 3 33 8
0 14 7 14 15 0 8 6 15 13 15 8 0 8 3 -2 9 -11 7 -7 10 15 13 16 2 -52 17 -151
35 -297 53 -464 111 -530 184 l-34 38 14 47 c36 119 154 222 356 308 57 25
145 56 194 71 50 14 95 27 100 29 21 9 -64 3 -161 -10z"/>
<path d="M10140 13080 c14 -4 65 -20 113 -35 259 -77 444 -200 512 -339 30
-62 28 -83 -13 -122 -80 -75 -284 -139 -622 -193 -63 -10 -102 -19 -87 -20 16
-1 26 -5 22 -11 -3 -5 -1 -10 4 -10 6 0 11 -7 11 -15 0 -8 9 -15 19 -15 10 0
21 -7 25 -15 4 -11 -2 -15 -22 -16 -15 0 -21 -3 -14 -6 20 -8 306 26 446 53
344 67 581 175 636 289 20 42 21 51 10 88 -37 126 -271 241 -644 317 -141 28
-360 61 -401 59 -17 0 -16 -2 5 -9z"/>
<path d="M6095 11606 c-52 -33 -52 -33 -104 -46 -74 -19 -167 -121 -229 -250
-58 -122 -82 -194 -116 -357 -42 -200 -51 -309 -50 -598 0 -225 4 -293 22
-411 60 -387 170 -640 321 -736 25 -15 54 -28 65 -28 12 0 41 -14 66 -30 95
-63 159 -54 247 35 277 283 379 1257 203 1944 -58 228 -152 407 -245 470 -54
36 -128 39 -180 7z"/>
<path d="M12870 11603 c-149 -96 -275 -441 -321 -878 -19 -176 -16 -568 5
-745 44 -371 136 -652 257 -784 87 -95 161 -109 257 -47 27 17 57 31 67 31 10
0 37 11 61 25 221 130 369 658 351 1255 -9 302 -44 516 -119 730 -74 211 -186
351 -298 375 -19 4 -50 19 -68 33 -25 19 -49 27 -90 30 -49 3 -63 0 -102 -25z"/>
<path d="M7905 10329 c-256 -35 -485 -148 -665 -329 -163 -162 -257 -343 -306
-583 -25 -121 -15 -349 21 -477 179 -648 888 -995 1514 -743 334 134 586 423
673 769 33 129 33 389 0 518 -106 422 -443 741 -878 831 -96 20 -268 27 -359
14z m265 -360 c36 -5 90 -22 120 -36 30 -15 62 -27 72 -27 9 -1 20 -5 24 -9 5
-4 1 -5 -8 -2 -15 6 -15 4 0 -28 10 -19 19 -30 20 -25 2 5 10 4 18 -3 8 -7 17
-9 21 -6 3 4 18 1 32 -7 14 -7 48 -24 76 -37 27 -13 66 -41 88 -61 21 -21 44
-38 52 -38 8 0 20 -9 29 -21 13 -20 14 -20 19 -2 3 10 5 5 4 -12 -2 -22 4 -32
21 -40 12 -5 22 -13 22 -17 0 -3 7 -14 16 -23 9 -9 25 -37 35 -63 l18 -47 -4
52 c-2 29 -9 61 -14 72 -6 11 -11 23 -11 28 2 24 32 -55 34 -89 2 -21 8 -44
14 -50 9 -9 9 -3 2 20 -5 18 -5 30 0 27 12 -7 33 -103 26 -121 -3 -8 -2 -12 4
-9 6 3 10 5 10 3 0 -2 5 -41 10 -88 39 -338 -154 -695 -458 -850 -152 -77
-254 -101 -430 -101 -144 1 -238 23 -370 86 -305 147 -493 439 -495 770 -1 98
16 218 34 246 8 12 10 12 19 -1 14 -21 13 -4 -1 19 -9 13 -9 23 0 37 10 17 11
16 5 -7 -3 -17 -1 -28 8 -32 14 -5 16 1 19 63 2 19 5 26 10 18 10 -16 59 8 59
29 0 7 7 16 15 19 13 5 13 9 3 22 -11 13 -11 14 1 8 10 -7 12 -3 6 15 l-8 24
19 -23 19 -24 27 41 c15 23 22 41 17 41 -6 0 -7 5 -4 10 3 6 11 10 16 10 6 0
8 -4 4 -9 -3 -5 -2 -12 3 -15 4 -2 14 9 21 25 7 16 23 34 34 40 22 12 22 12 0
-13 -13 -13 -23 -33 -23 -44 1 -16 3 -15 15 7 19 35 57 59 94 59 23 0 28 4 24
18 -3 15 5 21 38 31 27 8 45 9 47 3 1 -5 10 -18 18 -28 14 -18 15 -18 5 3 -6
12 -11 26 -11 32 0 19 60 79 96 96 86 40 245 55 374 34z m-443 -57 c-10 -10
-14 -22 -10 -27 5 -4 2 -5 -5 -1 -11 6 -10 12 4 27 9 10 19 19 22 19 3 0 -2
-8 -11 -18z m-27 -48 c0 -8 -5 -12 -10 -9 -6 4 -8 11 -5 16 9 14 15 11 15 -7z
m-389 -227 c-10 -9 -11 -8 -5 6 3 10 9 15 12 12 3 -3 0 -11 -7 -18z m1519 -82
c0 -5 -5 -3 -10 5 -5 8 -10 20 -10 25 0 6 5 3 10 -5 5 -8 10 -19 10 -25z"/>
<path d="M7266 9525 c-3 -9 -6 -22 -5 -28 0 -7 5 -1 10 12 5 13 8 26 5 28 -2
2 -6 -3 -10 -12z"/>
<path d="M7195 9414 c-8 -47 -2 -52 11 -8 6 19 8 37 4 39 -4 3 -11 -11 -15
-31z"/>
<path d="M7182 9340 c0 -14 2 -19 5 -12 2 6 2 18 0 25 -3 6 -5 1 -5 -13z"/>
<path d="M10998 10330 c-97 -12 -280 -65 -361 -106 -328 -165 -554 -458 -613
-798 -65 -370 55 -743 321 -995 358 -338 866 -413 1302 -192 284 144 498 408
574 709 50 195 49 364 -2 567 -24 96 -99 256 -162 344 -102 144 -299 309 -450
376 -189 83 -411 118 -609 95z m276 -365 c86 -18 154 -51 180 -88 17 -24 19
-32 9 -68 -6 -22 -7 -37 -2 -32 4 4 15 35 23 68 9 33 14 46 11 28 -4 -30 -2
-32 63 -59 37 -15 74 -33 82 -39 8 -7 30 -17 48 -25 17 -7 32 -19 32 -26 0 -8
5 -14 10 -14 6 0 28 -18 50 -41 31 -32 44 -39 62 -34 18 5 20 4 8 -4 -10 -7
-11 -11 -3 -11 7 0 10 -7 7 -15 -4 -9 3 -16 20 -21 19 -4 26 -13 26 -30 0 -14
7 -27 15 -31 20 -7 29 2 19 19 -4 7 -9 21 -9 31 -1 10 -8 23 -16 28 -10 6 -11
9 -1 9 14 0 32 -37 61 -130 74 -237 46 -482 -80 -695 -109 -185 -270 -312
-494 -390 -70 -25 -98 -29 -230 -32 -167 -5 -226 4 -365 58 -334 128 -564 477
-548 828 5 99 35 244 49 235 5 -2 5 -12 2 -22 -3 -9 11 5 31 33 35 49 46 72
26 60 -6 -3 -7 1 -4 10 6 14 8 14 20 -2 13 -17 14 -17 7 1 -4 13 -3 17 4 13 7
-5 9 1 6 15 -3 17 -2 19 5 9 14 -19 40 -7 52 24 5 14 23 33 39 43 30 18 62 53
75 82 3 8 4 4 2 -9 -5 -23 -4 -23 28 8 17 17 42 31 55 31 12 0 19 4 16 10 -4
6 7 13 24 16 17 4 31 12 31 18 0 6 5 4 10 -4 8 -12 10 -10 11 10 l1 25 8 -25
c8 -25 8 -25 9 -2 1 27 21 20 21 -7 0 -10 8 -25 18 -32 15 -13 16 -12 3 3 -12
16 -12 28 2 93 2 11 7 19 10 17 4 -1 29 9 56 23 99 52 270 69 405 40z m-941
-390 c-3 -9 -8 -14 -10 -11 -3 3 -2 9 2 15 9 16 15 13 8 -4z m-13 -90 c0 -5
-5 -3 -10 5 -5 8 -10 20 -10 25 0 6 5 3 10 -5 5 -8 10 -19 10 -25z"/>
<path d="M11497 9823 c-4 -3 -7 -11 -7 -17 0 -6 5 -5 12 2 6 6 9 14 7 17 -3 3
-9 2 -12 -2z"/>
<path d="M10562 9690 c0 -14 2 -19 5 -12 2 6 2 18 0 25 -3 6 -5 1 -5 -13z"/>
<path d="M11937 9513 c-4 -3 -7 -20 -6 -37 l1 -31 9 34 c10 33 8 47 -4 34z"/>
<path d="M8583 7556 c-144 -105 -179 -246 -91 -359 l30 -39 -21 -26 c-58 -71
-61 -88 -166 -752 -66 -422 -138 -871 -205 -1280 l-58 -355 63 -64 63 -63 11
67 c7 37 48 298 91 579 43 281 88 567 99 636 12 69 52 330 91 580 69 444 89
547 114 582 12 16 20 14 98 -26 220 -110 530 -169 893 -169 359 0 655 58 887
173 57 29 79 36 86 27 19 -23 40 -103 61 -232 33 -200 81 -502 81 -509 0 -3
-146 -6 -325 -6 l-325 0 -15 38 c-22 51 -62 90 -104 102 -45 12 -682 13 -734
1 -140 -33 -171 -253 -49 -336 l37 -25 368 0 c320 0 374 2 403 16 38 18 66 52
81 99 l10 30 169 2 c93 2 243 0 334 -5 l164 -7 18 -115 c10 -63 38 -243 63
-400 56 -358 151 -976 162 -1053 l8 -58 64 65 65 65 -12 73 c-11 69 -101 630
-162 1008 -15 96 -45 279 -65 405 -119 754 -126 790 -150 841 -14 28 -34 59
-45 69 -19 18 -19 18 11 57 43 54 59 112 48 173 -14 75 -60 135 -161 209 -35
26 -41 27 -105 21 -37 -4 -119 -15 -180 -26 -305 -51 -785 -66 -1138 -34 -104
9 -192 18 -195 20 -4 3 -114 19 -271 40 -32 4 -45 -1 -96 -39z m1278 -1203 c5
-14 9 -56 7 -92 l-3 -66 -75 -8 c-41 -5 -173 -7 -293 -4 -176 3 -220 6 -228
18 -13 21 -11 133 3 147 9 9 9 12 -2 12 -13 0 -13 2 0 10 9 6 132 10 298 10
l282 0 11 -27z"/>
<path d="M7943 7326 c-185 -47 -317 -194 -345 -384 l-11 -77 -123 -125 c-68
-69 -124 -128 -124 -131 0 -3 37 -5 83 -5 154 -1 258 -55 291 -151 9 -25 16
-56 16 -67 0 -16 11 -9 58 36 l57 57 59 -20 c34 -12 77 -19 104 -17 l47 3 41
220 c23 121 58 304 78 407 46 238 46 234 -1 248 -61 18 -173 21 -230 6z"/>
<path d="M11065 7334 c-47 -10 -105 -27 -105 -31 0 -9 93 -506 127 -678 l38
-190 45 3 c25 2 78 15 119 28 l74 25 49 -56 c27 -30 53 -55 56 -55 4 0 15 27
24 60 33 112 113 159 288 169 l95 6 -145 148 c-142 146 -145 150 -157 210 -28
137 -116 253 -236 312 -95 46 -196 64 -272 49z"/>
<path d="M11471 6158 c-3 -249 99 -790 199 -1056 39 -102 46 -117 127 -249 43
-70 132 -166 139 -148 14 33 70 117 111 165 137 161 312 246 524 257 177 9
333 -33 465 -126 72 -50 178 -157 197 -198 15 -33 24 -29 57 24 39 61 52 112
51 192 -3 190 -191 349 -507 428 -99 25 -127 27 -294 28 -102 0 -205 -3 -230
-8 -27 -4 -40 -4 -31 2 9 6 10 11 2 15 -6 4 -11 15 -11 24 0 9 -18 46 -40 82
-21 36 -47 81 -56 100 -10 19 -22 38 -26 41 -4 3 -19 21 -33 40 -33 44 -164
179 -175 179 -4 0 -28 19 -53 43 -25 23 -81 60 -124 81 -43 22 -80 43 -83 46
-3 4 -43 21 -90 39 -46 18 -88 37 -92 44 -6 9 -8 8 -9 -3 -1 -8 -5 1 -9 20 -5
25 -8 7 -9 -62z"/>
<path d="M7729 6213 c0 -25 -1 -26 -9 -8 -7 17 -9 17 -9 3 -1 -10 -7 -15 -14
-12 -8 3 -20 -2 -27 -11 -7 -8 -20 -15 -29 -15 -9 0 -29 -7 -45 -15 -15 -8
-36 -15 -46 -15 -10 0 -25 -6 -32 -12 -8 -7 -44 -28 -80 -47 -37 -19 -78 -44
-92 -55 -45 -38 -89 -71 -97 -74 -12 -5 -129 -120 -129 -127 0 -3 -16 -23 -36
-45 -19 -21 -45 -55 -56 -77 -11 -21 -25 -42 -32 -48 -6 -5 -25 -37 -40 -70
-16 -33 -35 -72 -42 -86 -8 -14 -10 -29 -6 -33 4 -5 -11 -4 -33 0 -75 15 -354
9 -440 -10 -276 -60 -462 -173 -539 -328 -47 -94 -33 -230 33 -320 l29 -39 30
43 c118 171 308 282 530 310 205 26 426 -46 583 -190 58 -53 137 -155 160
-206 7 -14 16 -26 20 -26 16 0 110 102 129 140 11 21 33 58 49 82 87 129 184
468 247 863 24 152 44 455 30 455 -3 0 -6 -12 -7 -27z"/>
<path d="M6745 4691 c-121 -32 -210 -121 -241 -242 -31 -123 3 -249 93 -341
l46 -47 -37 -56 c-47 -72 -173 -204 -250 -263 l-60 -46 33 -13 c77 -32 79 -31
180 64 52 48 123 126 157 173 l62 85 99 0 c86 1 104 4 148 27 62 32 129 103
158 166 33 73 31 208 -5 284 -37 79 -105 150 -177 182 -63 28 -156 40 -206 27z"/>
<path d="M12310 4691 c-105 -32 -195 -119 -236 -226 -27 -72 -25 -194 4 -259
36 -79 85 -131 157 -167 61 -30 69 -31 156 -27 l92 4 32 -50 c83 -128 272
-311 310 -300 38 12 88 34 84 38 -2 2 -38 31 -80 64 -80 63 -181 174 -230 251
l-29 44 44 47 c106 113 134 265 73 401 -50 113 -167 190 -287 188 -36 0 -76
-4 -90 -8z"/>
<path d="M8635 4278 c18 -143 68 -261 138 -332 47 -46 122 -86 164 -86 26 0
30 -6 52 -67 83 -238 258 -439 435 -500 53 -18 191 -24 255 -11 65 13 163 70
231 134 104 99 211 270 251 402 11 37 16 42 42 42 117 0 254 163 290 346 8 39
20 80 26 92 6 11 11 23 11 25 0 3 -28 -7 -62 -21 -148 -59 -395 -121 -578
-144 -168 -21 -506 -16 -678 11 -151 23 -420 95 -511 136 -29 14 -58 25 -63
25 -6 0 -7 -20 -3 -52z"/>
</g>
</svg>
